<svg id="visual" viewBox="0 0 1800 450" width="1800" height="450" xmlns="http://www.w3.org/2000/svg" xmlns:xlink="http://www.w3.org/1999/xlink" version="1.1"><rect x="0" y="0" width="1800" height="450" fill="#03045E"></rect><path d="M0 208L42.8 204.7C85.7 201.3 171.3 194.7 257 194.7C342.7 194.7 428.3 201.3 514 192.7C599.7 184 685.3 160 771.2 144.7C857 129.3 943 122.7 1028.8 125.3C1114.7 128 1200.3 140 1286 154.8C1371.7 169.7 1457.3 187.3 1543 186.3C1628.7 185.3 1714.3 165.7 1757.2 155.8L1800 146L1800 451L1757.2 451C1714.3 451 1628.7 451 1543 451C1457.3 451 1371.7 451 1286 451C1200.3 451 1114.7 451 1028.8 451C943 451 857 451 771.2 451C685.3 451 599.7 451 514 451C428.3 451 342.7 451 257 451C171.3 451 85.7 451 42.8 451L0 451Z" fill="#00b4d8"></path><path d="M0 176L42.8 175.8C85.7 175.7 171.3 175.3 257 179C342.7 182.7 428.3 190.3 514 199.8C599.7 209.3 685.3 220.7 771.2 227.7C857 234.7 943 237.3 1028.8 227.2C1114.7 217 1200.3 194 1286 191.8C1371.7 189.7 1457.3 208.3 1543 209.2C1628.7 210 1714.3 193 1757.2 184.5L1800 176L1800 451L1757.2 451C1714.3 451 1628.7 451 1543 451C1457.3 451 1371.7 451 1286 451C1200.3 451 1114.7 451 1028.8 451C943 451 857 451 771.2 451C685.3 451 599.7 451 514 451C428.3 451 342.7 451 257 451C171.3 451 85.7 451 42.8 451L0 451Z" fill="#59c3df"></path><path d="M0 319L42.8 306.3C85.7 293.7 171.3 268.3 257 262.5C342.7 256.7 428.3 270.3 514 279.2C599.7 288 685.3 292 771.2 287.3C857 282.7 943 269.3 1028.8 260.5C1114.7 251.7 1200.3 247.3 1286 257.8C1371.7 268.3 1457.3 293.7 1543 295.5C1628.7 297.3 1714.3 275.7 1757.2 264.8L1800 254L1800 451L1757.2 451C1714.3 451 1628.7 451 1543 451C1457.3 451 1371.7 451 1286 451C1200.3 451 1114.7 451 1028.8 451C943 451 857 451 771.2 451C685.3 451 599.7 451 514 451C428.3 451 342.7 451 257 451C171.3 451 85.7 451 42.8 451L0 451Z" fill="#84d2e6"></path><path d="M0 322L42.8 329.2C85.7 336.3 171.3 350.7 257 352.8C342.7 355 428.3 345 514 337.5C599.7 330 685.3 325 771.2 330C857 335 943 350 1028.8 349.5C1114.7 349 1200.3 333 1286 330.2C1371.7 327.3 1457.3 337.7 1543 341.7C1628.7 345.7 1714.3 343.3 1757.2 342.2L1800 341L1800 451L1757.2 451C1714.3 451 1628.7 451 1543 451C1457.3 451 1371.7 451 1286 451C1200.3 451 1114.7 451 1028.8 451C943 451 857 451 771.2 451C685.3 451 599.7 451 514 451C428.3 451 342.7 451 257 451C171.3 451 85.7 451 42.8 451L0 451Z" fill="#a8e1ef"></path><path d="M0 405L42.8 397.3C85.7 389.7 171.3 374.3 257 365.2C342.7 356 428.3 353 514 361.3C599.7 369.7 685.3 389.3 771.2 395C857 400.7 943 392.3 1028.8 388.8C1114.7 385.3 1200.3 386.7 1286 384.3C1371.7 382 1457.3 376 1543 372.7C1628.7 369.3 1714.3 368.7 1757.2 368.3L1800 368L1800 451L1757.2 451C1714.3 451 1628.7 451 1543 451C1457.3 451 1371.7 451 1286 451C1200.3 451 1114.7 451 1028.8 451C943 451 857 451 771.2 451C685.3 451 599.7 451 514 451C428.3 451 342.7 451 257 451C171.3 451 85.7 451 42.8 451L0 451Z" fill="#caf0f8"></path></svg>